<svg xmlns="http://www.w3.org/2000/svg" viewBox="0 0 64 64" role="img" aria-labelledby="favicon-title">
    <title id="favicon-title">Œil et feuille, symbole d’observation du bien-être</title>
    <rect width="64" height="64" rx="14" fill="#f7f3e8"/>
    <path
        fill="#174f3c"
        fill-rule="evenodd"
        d="M4 32C10.8 20.1 20.7 14 32 14s21.2 6.1 28 18c-6.8 11.9-16.7 18-28 18S10.8 43.9 4 32Zm8.1 0C17.5 39.4 24 43 32 43s14.5-3.6 19.9-11C46.5 24.6 40 21 32 21s-14.5 3.6-19.9 11Z"
    />
    <circle cx="32" cy="32" r="10" fill="#174f3c"/>
    <path d="M29 39.5c1.1-8.8 6.1-14.2 15-16-1.2 9-6.1 14.3-15 16Z" fill="#7d9f78"/>
    <path d="M29.4 39.1 39.8 28.7" fill="none" stroke="#f7f3e8" stroke-linecap="round" stroke-width="2"/>
</svg>
